<?xml version="1.0" encoding="UTF-8" standalone="no"?>
<!-- Created with Inkscape (http://www.inkscape.org/) -->

<svg
   width="103.52324mm"
   height="58.132824mm"
   viewBox="0 0 103.52324 58.132824"
   version="1.1"
   id="svg1"
   xml:space="preserve"
   inkscape:version="1.4 (e7c3feb1, 2024-10-09)"
   sodipodi:docname="r-logo.svg"
   xmlns:inkscape="http://www.inkscape.org/namespaces/inkscape"
   xmlns:sodipodi="http://sodipodi.sourceforge.net/DTD/sodipodi-0.dtd"
   xmlns:xlink="http://www.w3.org/1999/xlink"
   xmlns="http://www.w3.org/2000/svg"
   xmlns:svg="http://www.w3.org/2000/svg"><sodipodi:namedview
     id="namedview1"
     pagecolor="#ffffff"
     bordercolor="#000000"
     borderopacity="0.25"
     inkscape:showpageshadow="2"
     inkscape:pageopacity="0.0"
     inkscape:pagecheckerboard="0"
     inkscape:deskcolor="#d1d1d1"
     inkscape:document-units="mm"
     inkscape:zoom="0.12078873"
     inkscape:cx="993.47018"
     inkscape:cy="-1088.6777"
     inkscape:window-width="1504"
     inkscape:window-height="944"
     inkscape:window-x="234"
     inkscape:window-y="25"
     inkscape:window-maximized="0"
     inkscape:current-layer="layer1"><inkscape:page
       x="-3.7209604e-13"
       y="0"
       width="103.52323"
       height="58.132824"
       id="page2"
       margin="0"
       bleed="0" /></sodipodi:namedview><defs
     id="defs1"><linearGradient
       id="linearGradient132850"
       inkscape:collect="always"><stop
         style="stop-color:#bf1434;stop-opacity:1;"
         offset="0"
         id="stop132849" /><stop
         style="stop-color:#0f55a9;stop-opacity:1;"
         offset="0.39563861"
         id="stop132850" /></linearGradient><linearGradient
       id="linearGradient4"
       inkscape:collect="always"><stop
         style="stop-color:#bf1434;stop-opacity:1;"
         offset="0"
         id="stop4" /><stop
         style="stop-color:#0f55a9;stop-opacity:1;"
         offset="0.65109032"
         id="stop5" /></linearGradient><style
       id="style1">
      .cls-1, .cls-2 {
        fill: none;
      }

      .cls-3 {
        clip-path: url(#clippath-2);
      }

      .cls-4 {
        fill: #fff;
      }

      .cls-5 {
        opacity: .01;
      }

      .cls-6 {
        opacity: .902;
      }

      .cls-7 {
        opacity: .902;
      }

      .cls-8 {
        opacity: .898;
      }

      .cls-9 {
        opacity: .921;
      }

      .cls-10 {
        opacity: .917;
      }

      .cls-11 {
        opacity: .871;
      }

      .cls-12 {
        opacity: .889;
      }

      .cls-13 {
        opacity: .888;
      }

      .cls-14 {
        opacity: .886;
      }

      .cls-15 {
        opacity: .882;
      }

      .cls-16 {
        opacity: .842;
      }

      .cls-17 {
        opacity: .832;
      }

      .cls-18 {
        opacity: .859;
      }

      .cls-19 {
        opacity: .848;
      }

      .cls-20 {
        opacity: .847;
      }

      .cls-21 {
        opacity: .812;
      }

      .cls-22 {
        opacity: .807;
      }

      .cls-23 {
        opacity: .8;
      }

      .cls-24 {
        opacity: .827;
      }

      .cls-25 {
        opacity: .813;
      }

      .cls-26 {
        opacity: .777;
      }

      .cls-27 {
        opacity: .776;
      }

      .cls-28 {
        opacity: .77;
      }

      .cls-29 {
        opacity: .768;
      }

      .cls-30 {
        opacity: .767;
      }

      .cls-31 {
        opacity: .792;
      }

      .cls-32 {
        opacity: .785;
      }

      .cls-33 {
        opacity: .739;
      }

      .cls-34 {
        opacity: .755;
      }

      .cls-35 {
        opacity: .75;
      }

      .cls-36 {
        opacity: .716;
      }

      .cls-37 {
        opacity: .713;
      }

      .cls-38 {
        opacity: .714;
      }

      .cls-39 {
        opacity: .71;
      }

      .cls-40 {
        opacity: .703;
      }

      .cls-41 {
        opacity: .73;
      }

      .cls-42 {
        opacity: .728;
      }

      .cls-43 {
        opacity: .721;
      }

      .cls-44 {
        opacity: .677;
      }

      .cls-45 {
        opacity: .678;
      }

      .cls-46 {
        opacity: .678;
      }

      .cls-47 {
        opacity: .673;
      }

      .cls-48 {
        opacity: .701;
      }

      .cls-49 {
        opacity: .697;
      }

      .cls-50 {
        opacity: .688;
      }

      .cls-51 {
        opacity: .995;
      }

      .cls-52 {
        opacity: .99;
      }

      .cls-53 {
        opacity: .963;
      }

      .cls-54 {
        opacity: .962;
      }

      .cls-55 {
        opacity: .956;
      }

      .cls-56 {
        opacity: .983;
      }

      .cls-57 {
        opacity: .981;
      }

      .cls-58 {
        opacity: .975;
      }

      .cls-59 {
        opacity: .974;
      }

      .cls-60 {
        opacity: .928;
      }

      .cls-61 {
        opacity: .927;
      }

      .cls-62 {
        opacity: .924;
      }

      .cls-63 {
        opacity: .95;
      }

      .cls-64 {
        opacity: .945;
      }

      .cls-65 {
        opacity: .459;
      }

      .cls-66 {
        opacity: .457;
      }

      .cls-67 {
        opacity: .444;
      }

      .cls-68 {
        opacity: .439;
      }

      .cls-69 {
        opacity: .428;
      }

      .cls-70 {
        opacity: .422;
      }

      .cls-71 {
        opacity: .405;
      }

      .cls-72 {
        opacity: .4;
      }

      .cls-73 {
        opacity: .4;
      }

      .cls-74 {
        opacity: .397;
      }

      .cls-75 {
        opacity: .381;
      }

      .cls-76 {
        opacity: .379;
      }

      .cls-77 {
        opacity: .366;
      }

      .cls-78 {
        opacity: .339;
      }

      .cls-79 {
        opacity: .348;
      }

      .cls-80 {
        opacity: .644;
      }

      .cls-81 {
        opacity: .67;
      }

      .cls-82 {
        opacity: .667;
      }

      .cls-83 {
        opacity: .661;
      }

      .cls-84 {
        opacity: .659;
      }

      .cls-85 {
        opacity: .656;
      }

      .cls-86 {
        opacity: .623;
      }

      .cls-87 {
        opacity: .622;
      }

      .cls-88 {
        opacity: .616;
      }

      .cls-89 {
        opacity: .614;
      }

      .cls-90 {
        opacity: .612;
      }

      .cls-91 {
        opacity: .612;
      }

      .cls-92 {
        opacity: .632;
      }

      .cls-93 {
        opacity: .626;
      }

      .cls-94 {
        opacity: .591;
      }

      .cls-95 {
        opacity: .585;
      }

      .cls-96 {
        opacity: .597;
      }

      .cls-97 {
        opacity: .552;
      }

      .cls-98 {
        opacity: .551;
      }

      .cls-99 {
        opacity: .571;
      }

      .cls-100 {
        opacity: .524;
      }

      .cls-101 {
        opacity: .52;
      }

      .cls-102 {
        opacity: .538;
      }

      .cls-103 {
        opacity: .493;
      }

      .cls-104 {
        opacity: .508;
      }

      .cls-105 {
        opacity: .509;
      }

      .cls-106 {
        opacity: .477;
      }

      .cls-107 {
        opacity: .491;
      }

      .cls-108 {
        opacity: .489;
      }

      .cls-109 {
        opacity: .463;
      }

      .cls-110 {
        opacity: .472;
      }

      .cls-111 {
        opacity: .227;
      }

      .cls-112 {
        opacity: .192;
      }

      .cls-113 {
        opacity: .192;
      }

      .cls-114 {
        opacity: .177;
      }

      .cls-115 {
        opacity: .324;
      }

      .cls-116 {
        opacity: .332;
      }

      .cls-117 {
        opacity: .331;
      }

      .cls-118 {
        opacity: .317;
      }

      .cls-119 {
        opacity: .295;
      }

      .cls-120 {
        opacity: .278;
      }

      .cls-121 {
        opacity: .261;
      }

      .cls-122 {
        opacity: .258;
      }

      .cls-123 {
        opacity: .257;
      }

      .cls-124 {
        opacity: .255;
      }

      .cls-125 {
        opacity: .245;
      }

      .cls-126 {
        opacity: .232;
      }

      .cls-127 {
        opacity: .167;
      }

      .cls-128 {
        opacity: .141;
      }

      .cls-129 {
        opacity: .126;
      }

      .cls-130 {
        opacity: .019;
      }

      .cls-131 {
        fill: #c41230;
      }

      .cls-132 {
        clip-path: url(#clippath);
      }

      .cls-2 {
        stroke: #231f20;
        stroke-miterlimit: 10;
        stroke-width: 32px;
      }
    </style><linearGradient
       id="linearGradient3258"
       inkscape:swatch="solid"><stop
         style="stop-color:#000000;stop-opacity:1;"
         offset="0"
         id="stop3256" /></linearGradient><style
       id="style1-1">
      .cls-1, .cls-2 {
        fill: none;
      }

      .cls-3 {
        clip-path: url(#clippath-2);
      }

      .cls-4 {
        fill: #fff;
      }

      .cls-5 {
        opacity: .01;
      }

      .cls-6 {
        opacity: .902;
      }

      .cls-7 {
        opacity: .902;
      }

      .cls-8 {
        opacity: .898;
      }

      .cls-9 {
        opacity: .921;
      }

      .cls-10 {
        opacity: .917;
      }

      .cls-11 {
        opacity: .871;
      }

      .cls-12 {
        opacity: .889;
      }

      .cls-13 {
        opacity: .888;
      }

      .cls-14 {
        opacity: .886;
      }

      .cls-15 {
        opacity: .882;
      }

      .cls-16 {
        opacity: .842;
      }

      .cls-17 {
        opacity: .832;
      }

      .cls-18 {
        opacity: .859;
      }

      .cls-19 {
        opacity: .848;
      }

      .cls-20 {
        opacity: .847;
      }

      .cls-21 {
        opacity: .812;
      }

      .cls-22 {
        opacity: .807;
      }

      .cls-23 {
        opacity: .8;
      }

      .cls-24 {
        opacity: .827;
      }

      .cls-25 {
        opacity: .813;
      }

      .cls-26 {
        opacity: .777;
      }

      .cls-27 {
        opacity: .776;
      }

      .cls-28 {
        opacity: .77;
      }

      .cls-29 {
        opacity: .768;
      }

      .cls-30 {
        opacity: .767;
      }

      .cls-31 {
        opacity: .792;
      }

      .cls-32 {
        opacity: .785;
      }

      .cls-33 {
        opacity: .739;
      }

      .cls-34 {
        opacity: .755;
      }

      .cls-35 {
        opacity: .75;
      }

      .cls-36 {
        opacity: .716;
      }

      .cls-37 {
        opacity: .713;
      }

      .cls-38 {
        opacity: .714;
      }

      .cls-39 {
        opacity: .71;
      }

      .cls-40 {
        opacity: .703;
      }

      .cls-41 {
        opacity: .73;
      }

      .cls-42 {
        opacity: .728;
      }

      .cls-43 {
        opacity: .721;
      }

      .cls-44 {
        opacity: .677;
      }

      .cls-45 {
        opacity: .678;
      }

      .cls-46 {
        opacity: .678;
      }

      .cls-47 {
        opacity: .673;
      }

      .cls-48 {
        opacity: .701;
      }

      .cls-49 {
        opacity: .697;
      }

      .cls-50 {
        opacity: .688;
      }

      .cls-51 {
        opacity: .995;
      }

      .cls-52 {
        opacity: .99;
      }

      .cls-53 {
        opacity: .963;
      }

      .cls-54 {
        opacity: .962;
      }

      .cls-55 {
        opacity: .956;
      }

      .cls-56 {
        opacity: .983;
      }

      .cls-57 {
        opacity: .981;
      }

      .cls-58 {
        opacity: .975;
      }

      .cls-59 {
        opacity: .974;
      }

      .cls-60 {
        opacity: .928;
      }

      .cls-61 {
        opacity: .927;
      }

      .cls-62 {
        opacity: .924;
      }

      .cls-63 {
        opacity: .95;
      }

      .cls-64 {
        opacity: .945;
      }

      .cls-65 {
        opacity: .459;
      }

      .cls-66 {
        opacity: .457;
      }

      .cls-67 {
        opacity: .444;
      }

      .cls-68 {
        opacity: .439;
      }

      .cls-69 {
        opacity: .428;
      }

      .cls-70 {
        opacity: .422;
      }

      .cls-71 {
        opacity: .405;
      }

      .cls-72 {
        opacity: .4;
      }

      .cls-73 {
        opacity: .4;
      }

      .cls-74 {
        opacity: .397;
      }

      .cls-75 {
        opacity: .381;
      }

      .cls-76 {
        opacity: .379;
      }

      .cls-77 {
        opacity: .366;
      }

      .cls-78 {
        opacity: .339;
      }

      .cls-79 {
        opacity: .348;
      }

      .cls-80 {
        opacity: .644;
      }

      .cls-81 {
        opacity: .67;
      }

      .cls-82 {
        opacity: .667;
      }

      .cls-83 {
        opacity: .661;
      }

      .cls-84 {
        opacity: .659;
      }

      .cls-85 {
        opacity: .656;
      }

      .cls-86 {
        opacity: .623;
      }

      .cls-87 {
        opacity: .622;
      }

      .cls-88 {
        opacity: .616;
      }

      .cls-89 {
        opacity: .614;
      }

      .cls-90 {
        opacity: .612;
      }

      .cls-91 {
        opacity: .612;
      }

      .cls-92 {
        opacity: .632;
      }

      .cls-93 {
        opacity: .626;
      }

      .cls-94 {
        opacity: .591;
      }

      .cls-95 {
        opacity: .585;
      }

      .cls-96 {
        opacity: .597;
      }

      .cls-97 {
        opacity: .552;
      }

      .cls-98 {
        opacity: .551;
      }

      .cls-99 {
        opacity: .571;
      }

      .cls-100 {
        opacity: .524;
      }

      .cls-101 {
        opacity: .52;
      }

      .cls-102 {
        opacity: .538;
      }

      .cls-103 {
        opacity: .493;
      }

      .cls-104 {
        opacity: .508;
      }

      .cls-105 {
        opacity: .509;
      }

      .cls-106 {
        opacity: .477;
      }

      .cls-107 {
        opacity: .491;
      }

      .cls-108 {
        opacity: .489;
      }

      .cls-109 {
        opacity: .463;
      }

      .cls-110 {
        opacity: .472;
      }

      .cls-111 {
        opacity: .227;
      }

      .cls-112 {
        opacity: .192;
      }

      .cls-113 {
        opacity: .192;
      }

      .cls-114 {
        opacity: .177;
      }

      .cls-115 {
        opacity: .324;
      }

      .cls-116 {
        opacity: .332;
      }

      .cls-117 {
        opacity: .331;
      }

      .cls-118 {
        opacity: .317;
      }

      .cls-119 {
        opacity: .295;
      }

      .cls-120 {
        opacity: .278;
      }

      .cls-121 {
        opacity: .261;
      }

      .cls-122 {
        opacity: .258;
      }

      .cls-123 {
        opacity: .257;
      }

      .cls-124 {
        opacity: .255;
      }

      .cls-125 {
        opacity: .245;
      }

      .cls-126 {
        opacity: .232;
      }

      .cls-127 {
        opacity: .167;
      }

      .cls-128 {
        opacity: .141;
      }

      .cls-129 {
        opacity: .126;
      }

      .cls-130 {
        opacity: .019;
      }

      .cls-131 {
        fill: #c41230;
      }

      .cls-132 {
        clip-path: url(#clippath);
      }

      .cls-2 {
        stroke: #231f20;
        stroke-miterlimit: 10;
        stroke-width: 32px;
      }
    </style><style
       id="style2">
      .hex { fill:#dddce9; stroke:#6d6b86; stroke-width:2.2; }
      .hexDark { fill:#7d4e7f; stroke:#5e3c5e; stroke-width:2.2; }
      .hexRed { fill:#8d4660; stroke:#6a3047; stroke-width:2.2; }
      .hexBlue { fill:#6f8ab7; stroke:#546a94; stroke-width:2.2; }
      .nodeInner { stroke:#333; stroke-width:0.8; fill:none; }
      .thin { stroke-width:2; fill:none; stroke-linecap:round; stroke-linejoin:round; }
      .label { font-family: Menlo, Monaco, Consolas, monospace; font-size:18px; fill:#dfe8f1; }
    </style><style
       id="style2-8">
      .hex { fill:#dddce9; stroke:#6d6b86; stroke-width:2.2; }
      .hexDark { fill:#7d4e7f; stroke:#5e3c5e; stroke-width:2.2; }
      .hexRed { fill:#8d4660; stroke:#6a3047; stroke-width:2.2; }
      .hexBlue { fill:#6f8ab7; stroke:#546a94; stroke-width:2.2; }
      .nodeInner { stroke:#333; stroke-width:0.8; fill:none; }
      .thin { stroke-width:2; fill:none; stroke-linecap:round; stroke-linejoin:round; }
      .label { font-family: Menlo, Monaco, Consolas, monospace; font-size:18px; fill:#dfe8f1; }
    </style><linearGradient
       inkscape:collect="always"
       xlink:href="#linearGradient4"
       id="linearGradient132847"
       x1="135.6825"
       y1="120.02531"
       x2="239.20572"
       y2="120.02531"
       gradientUnits="userSpaceOnUse" /><linearGradient
       inkscape:collect="always"
       xlink:href="#linearGradient132850"
       id="linearGradient132849"
       x1="135.6825"
       y1="120.02531"
       x2="239.20572"
       y2="120.02531"
       gradientUnits="userSpaceOnUse" /></defs><g
     inkscape:label="Layer 1"
     inkscape:groupmode="layer"
     id="layer1"
     transform="translate(-135.6825,-90.95891)"><path
       d="m 222.29258,148.51658 c -0.0879,-0.0879 -0.57071,-0.16356 -1.07284,-0.16807 l -0.91296,-0.008 -0.0709,-2.13274 c -0.0635,-1.90914 -0.12378,-2.14657 -0.57519,-2.26462 -0.45862,-0.11993 -0.49036,-0.26197 -0.35054,-1.56859 0.31733,-2.96548 0.34587,-3.04619 1.13283,-3.20358 0.83919,-0.16784 0.84013,-0.17004 0.38127,-0.89444 -0.79037,-1.24776 0.68728,-2.28615 1.68476,-1.18394 0.4794,0.52974 0.24713,1.27326 -0.53965,1.72747 -0.33467,0.19321 -0.24857,0.22603 0.39225,0.1495 0.73774,-0.0881 0.85667,-0.0128 1.17209,0.74212 0.49274,1.17929 0.47887,4.3106 -0.0191,4.3106 -0.30126,0 -0.37013,0.40833 -0.37013,2.1944 0,1.65495 -0.0851,2.22704 -0.34601,2.32718 -0.19031,0.073 -0.41795,0.0608 -0.50588,-0.0271 z m -0.45765,-1.71379 c -0.0626,-0.24008 -0.11786,-0.10339 -0.12289,0.30375 -0.005,0.40715 0.0462,0.60358 0.11375,0.43652 0.0676,-0.16706 0.0717,-0.50018 0.009,-0.74027 z m 0.24284,-8.85111 c 0.15578,-0.40597 -0.3589,-0.90182 -0.7105,-0.68452 -0.35191,0.21749 -0.20749,0.57464 0.17329,0.42852 0.20357,-0.0781 0.37013,-0.0273 0.37013,0.11303 0,0.14028 -0.19432,0.30584 -0.43182,0.36791 -0.4047,0.10576 -0.40422,0.11464 0.008,0.14147 0.24176,0.0157 0.50778,-0.14914 0.59116,-0.36641 z m -6.7678,9.36157 c -0.20295,-0.0819 -0.30959,-0.68706 -0.31181,-1.76949 -0.004,-1.90005 -0.18422,-2.75568 -0.58061,-2.75486 -0.35603,7.3e-4 -0.22902,-3.93385 0.1414,-4.38018 0.14094,-0.16982 0.46474,-0.30876 0.71955,-0.30876 0.56095,0 0.57133,-0.0992 0.0876,-0.83756 -0.47337,-0.72245 -0.24725,-1.34135 0.56451,-1.54509 0.82219,-0.20635 1.39609,0.17538 1.49367,0.99352 0.0644,0.54026 -0.063,0.71803 -0.70977,0.98997 -0.43358,0.18231 -0.6857,0.39489 -0.56028,0.47241 0.12543,0.0775 0.37384,0.0508 0.55203,-0.0593 0.47408,-0.293 1.23286,-0.0254 1.53642,0.54177 0.14544,0.27175 0.32435,1.36828 0.39758,2.43673 0.11594,1.69143 0.0807,1.94265 -0.27224,1.94265 -0.34119,0 -0.40539,0.30323 -0.40539,1.91469 0,1.67152 -0.0651,1.95537 -0.51285,2.23497 -0.42079,0.26279 -0.58302,0.26237 -0.90377,-0.002 -0.30882,-0.25485 -0.41273,-0.25783 -0.49474,-0.0142 -0.10912,0.3242 -0.23579,0.34899 -0.74127,0.14502 z m 1.66561,-10.44707 c 0,-0.13572 -0.11104,-0.24676 -0.24676,-0.24676 -0.13572,0 -0.24676,0.11104 -0.24676,0.24676 0,0.13572 0.11104,0.24676 0.24676,0.24676 0.13572,0 0.24676,-0.11104 0.24676,-0.24676 z m -0.61689,-0.49351 c 0.0839,-0.13572 0.0349,-0.24676 -0.10882,-0.24676 -0.14372,0 -0.26132,0.11104 -0.26132,0.24676 0,0.13571 0.049,0.24675 0.10882,0.24675 0.0598,0 0.17744,-0.11104 0.26132,-0.24675 z m 9.17108,10.44599 c -0.0905,-0.0905 -0.1645,-1.04471 -0.1645,-2.12052 0,-1.77583 -0.0474,-1.96843 -0.5151,-2.09073 -0.48314,-0.12634 -0.50421,-0.24355 -0.33968,-1.88925 0.21693,-2.16972 0.47344,-2.87596 1.10451,-3.04099 0.51823,-0.13553 0.65961,-0.67737 0.24378,-0.93437 -0.36326,-0.22451 -0.30012,-1.00568 0.10871,-1.34498 0.19551,-0.16226 0.28967,-0.46648 0.20925,-0.67606 -0.22934,-0.59765 -0.78642,0.59047 -0.83192,1.77429 -0.0368,0.95711 -0.0437,0.96459 -0.22631,0.24675 -0.18516,-0.72768 -0.18952,-0.72349 -0.25632,0.24676 l -0.068,0.98702 -0.16923,-1.23378 c -0.14927,-1.08836 -0.17379,-0.97929 -0.20799,0.92534 -0.0213,1.18751 -0.13633,2.15911 -0.25558,2.15911 -0.32045,0 -0.71802,-1.17767 -0.90622,-2.68435 -0.10428,-0.83483 -0.24014,-1.20688 -0.36621,-1.00289 -0.16515,0.26722 -0.26889,0.26748 -0.58937,0.002 -0.28977,-0.24049 -0.38894,-0.78697 -0.38894,-2.14325 0,-2.3446 0.38151,-2.80747 2.31397,-2.80747 0.79594,0 1.43477,0.12993 1.59641,0.32469 0.14821,0.17858 0.34311,0.98363 0.43311,1.78898 0.22783,2.03869 1.1475,3.06043 1.48459,1.64935 0.26734,-1.11911 0.55222,-1.29547 2.09263,-1.29547 1.82258,0 2.13204,0.39946 2.35527,3.04024 0.15412,1.82329 0.14016,1.89488 -0.36954,1.89488 -0.49995,0 -0.52972,0.11704 -0.52972,2.08286 0,2.13778 -0.2182,2.64766 -0.89326,2.08741 -0.29952,-0.24858 -0.4174,-0.25029 -0.56701,-0.008 -0.10388,0.16808 -0.28973,0.28659 -0.41301,0.26335 -0.99955,-0.18839 -1.08779,-0.0256 -1.08779,2.00741 0,1.92381 -0.0188,1.98854 -0.5552,1.91235 -0.52392,-0.0744 -0.55648,-0.19702 -0.57792,-2.17627 l -0.0227,-2.09742 0.16333,1.85066 c 0.0898,1.01787 0.19614,1.51755 0.23625,1.1104 0.0401,-0.40714 0.0925,-0.8513 0.11651,-0.98702 0.024,-0.13571 0.12979,-1.24612 0.23513,-2.46756 0.10535,-1.22144 0.28462,-2.51295 0.39839,-2.87002 0.17096,-0.53659 0.11164,-0.70019 -0.34191,-0.94292 -0.30182,-0.16153 -0.98254,-0.25802 -1.5127,-0.21442 -0.92408,0.076 -0.97273,0.12404 -1.17671,1.16198 -0.14953,0.76091 -0.1276,1.13534 0.0738,1.2598 0.17676,0.10924 0.34098,1.28253 0.42864,3.06253 0.15944,3.23739 0.49389,3.51437 0.62334,0.51624 l 0.0852,-1.97319 0.0497,2.40587 c 0.0451,2.18652 0.008,2.40587 -0.40273,2.40587 -0.24881,0 -0.52641,-0.074 -0.61689,-0.1645 z m 4.10931,-6.69717 c 0.004,-2.17871 -0.12552,-2.7618 -0.6145,-2.7618 -0.15726,0 -0.20425,0.31625 -0.11916,0.80196 0.0773,0.44107 0.16148,1.52371 0.18712,2.40587 0.0256,0.88215 0.0969,1.69458 0.15843,1.80539 0.26519,0.47787 0.38417,-0.21229 0.38811,-2.25142 z m -0.84785,0.63109 c -0.0309,-1.66674 -0.14877,-1.50496 -0.26956,0.37014 -0.0415,0.64465 0.009,1.17209 0.11134,1.17209 0.10276,0 0.17396,-0.694 0.15822,-1.54223 z m 2.05771,-2.4706 c 0.0492,-1.9109 -0.0106,-2.6253 -0.21304,-2.54738 -0.15476,0.0596 -0.511,-0.10563 -0.79164,-0.36709 -0.60314,-0.56191 -0.88305,-0.61243 -0.69626,-0.12566 0.0738,0.19234 -0.0327,0.41374 -0.2366,0.492 -0.28329,0.10871 -0.3524,-0.0151 -0.29286,-0.5247 0.0701,-0.59968 0.1801,-0.6691 1.09023,-0.68784 0.85709,-0.0177 0.99455,0.047 0.89655,0.42174 -0.0637,0.24343 0.008,0.4426 0.1598,0.4426 0.15154,0 0.27553,-0.26047 0.27553,-0.57882 0,-0.5302 -0.11158,-0.58247 -1.32837,-0.62223 -1.30648,-0.0427 -1.3302,-0.0309 -1.43986,0.71628 -0.0856,0.58353 0.0221,0.86478 0.46472,1.21294 0.60259,0.47399 0.80148,0.91682 0.26778,0.59618 -0.21612,-0.12984 -0.20878,-0.0624 0.0245,0.22531 0.28547,0.35206 0.38225,0.36133 0.67858,0.065 0.1901,-0.19009 0.34563,-0.4646 0.34563,-0.61001 0,-0.14541 0.0949,-0.26438 0.21097,-0.26438 0.11603,0 0.21622,0.74952 0.22264,1.6656 0.009,1.25339 -0.0362,1.48239 -0.18178,0.92534 -0.13797,-0.528 -0.19684,-0.13884 -0.20529,1.35715 -0.008,1.37844 0.0608,1.92825 0.20021,1.60391 0.19662,-0.45755 0.21621,-0.44856 0.26891,0.12338 0.0489,0.53133 0.0675,0.51422 0.13408,-0.12338 0.0425,-0.40714 0.10799,-1.93531 0.14557,-3.39593 z m -5.80862,2.97954 c -0.0788,-0.19685 -0.13724,-0.13838 -0.14908,0.14908 -0.0107,0.26012 0.0476,0.40586 0.1296,0.32386 0.082,-0.082 0.0908,-0.29482 0.0195,-0.47294 z m 3.53277,-3.66964 c 0,-0.27944 -0.11104,-0.43944 -0.24675,-0.35557 -0.13572,0.0839 -0.24676,0.31251 -0.24676,0.50808 0,0.19556 0.11104,0.35557 0.24676,0.35557 0.13571,0 0.24675,-0.22864 0.24675,-0.50808 z m 1.72729,-0.23219 c 0,-0.13571 -0.11104,-0.24675 -0.24675,-0.24675 -0.13572,0 -0.24676,0.11104 -0.24676,0.24675 0,0.13572 0.11104,0.24676 0.24676,0.24676 0.13571,0 0.24675,-0.11104 0.24675,-0.24676 z m -2.46755,-0.24675 c 0,-0.13572 -0.049,-0.24676 -0.10882,-0.24676 -0.0598,0 -0.17744,0.11104 -0.26132,0.24676 -0.0839,0.13571 -0.0349,0.24675 0.10882,0.24675 0.14372,0 0.26132,-0.11104 0.26132,-0.24675 z m 0.74026,-0.49352 c 0,-0.13571 -0.11104,-0.24675 -0.24675,-0.24675 -0.13572,0 -0.24676,0.11104 -0.24676,0.24675 0,0.13572 0.11104,0.24676 0.24676,0.24676 0.13571,0 0.24675,-0.11104 0.24675,-0.24676 z m -4.35136,-1.29169 c 0.17763,-0.11505 0.12212,-0.18266 -0.15193,-0.18506 -0.31433,-0.003 -0.42403,0.18084 -0.4032,0.6748 0.0219,0.52011 0.0574,0.56333 0.15193,0.18506 0.0678,-0.27143 0.24925,-0.57509 0.4032,-0.6748 z m 0.81345,-0.49729 c -0.0684,-0.16964 -0.12446,-0.0308 -0.12446,0.30845 0,0.33929 0.056,0.47809 0.12446,0.30844 0.0684,-0.16964 0.0684,-0.44724 0,-0.61689 z m -0.95134,-0.56173 c -0.076,-0.076 -0.21395,0.061 -0.30662,0.30434 -0.13391,0.35167 -0.10557,0.38002 0.13813,0.13813 0.16864,-0.16738 0.24446,-0.36649 0.16849,-0.44247 z m 1.28143,-0.2736 c 0,-0.18419 -0.15793,-0.26066 -0.37013,-0.17923 -0.25684,0.0986 -0.37014,-0.0171 -0.37014,-0.37788 0,-0.57021 0.3674,-0.70017 0.59781,-0.21147 0.08,0.16965 0.0878,0.006 0.0175,-0.36356 -0.10048,-0.5279 -0.0479,-0.64129 0.24528,-0.5288 0.20525,0.0788 0.37318,0.0326 0.37318,-0.10249 0,-0.28666 -1.32862,-0.54971 -2.2208,-0.43968 -0.33929,0.0418 -0.75569,0.0902 -0.92533,0.10757 -0.16965,0.0173 -0.30675,0.28134 -0.30467,0.5867 0.003,0.44611 0.0497,0.48247 0.23768,0.18506 0.14054,-0.22239 0.62504,-0.3762 1.21381,-0.38534 0.88896,-0.0138 0.95656,0.0284 0.72836,0.4548 -0.32647,0.61002 -0.0803,1.57558 0.40169,1.57558 0.20666,0 0.37575,-0.14457 0.37575,-0.32126 z m -1.82423,-0.9465 c -0.0893,-0.60851 -0.39657,-0.7415 -0.39657,-0.17165 0,0.29405 0.10121,0.53464 0.22492,0.53464 0.12371,0 0.20095,-0.16335 0.17165,-0.36299 z m -17.25738,10.18507 c -3.42998,-0.30126 -7.38991,-1.28923 -9.23707,-2.30456 -2.44703,-1.34505 -3.2043,-2.0177 -4.55929,-4.04981 -0.68353,-1.0251 -1.46882,-2.11366 -1.74508,-2.41902 -0.27626,-0.30536 -0.41279,-0.55521 -0.30339,-0.55521 0.10939,0 -0.56525,-0.74952 -1.49921,-1.6656 -1.12073,-1.09927 -2.38939,-2.02756 -3.73119,-2.73016 -1.91507,-1.00277 -2.06506,-1.04216 -2.58415,-0.67858 -0.75053,0.52569 -1.57628,0.48475 -2.16855,-0.10753 -0.27143,-0.27143 -0.75335,-0.49351 -1.07093,-0.49351 -1.20588,0 -4.52496,1.0281 -5.79007,1.79351 -1.32412,0.8011 -3.67646,3.04814 -5.3554,5.11565 -2.39759,2.9525 -5.89765,6.11872 -6.93161,6.27048 -0.19673,0.0289 -0.52785,0.29543 -0.73582,0.59234 -0.50631,0.72286 -1.94676,0.75158 -2.32419,0.0463 -0.15275,-0.28542 -0.51666,-0.49351 -0.86307,-0.49351 -0.32942,0 -1.18608,-0.21996 -1.90367,-0.4888 -2.99346,-1.12148 -6.02498,-5.00447 -7.47227,-9.57103 -0.94768,-2.9902 -1.60687,-5.77371 -1.60591,-6.78124 6.1e-4,-0.6439 0.0599,-0.67858 1.16,-0.67858 2.07376,0 8.7848,-2.47774 9.70093,-3.58161 0.16728,-0.20157 0.43861,-0.36648 0.60295,-0.36648 0.16433,0 1.38289,-1.08265 2.7079,-2.40587 l 2.40911,-2.40587 -0.15133,-1.35716 c -0.0832,-0.74643 -0.21909,-3.68979 -0.30189,-6.54079 l -0.15055,-5.18363 0.86793,-0.49175 c 4.08736,-2.315777 5.29138,-2.926957 6.8142,-3.458997 2.25358,-0.78735 4.38734,-0.81093 6.36195,-0.0703 1.10958,0.41618 1.85318,0.95508 3.23463,2.344177 1.20245,1.2091 1.983,1.80376 2.36763,1.80376 0.56589,0 1.39055,0.67664 1.39055,1.14098 0,0.13116 0.80504,0.8047 1.78898,1.49676 0.98393,0.69205 2.51299,1.90848 3.39789,2.70316 2.76061,2.47915 4.08135,3.32349 5.9774,3.82128 2.13249,0.55986 2.2271,0.56148 3.89393,0.0665 1.1793,-0.35022 1.68466,-0.75175 4.47461,-3.55526 3.06957,-3.08448 5.87007,-5.40343 7.61032,-6.30171 1.13339,-0.58503 3.92435,-1.33703 4.07251,-1.0973 0.0638,0.10328 -0.22017,0.32706 -0.63112,0.49728 -1.97854,0.81954 -3.69696,2.6624 -3.6764,3.94263 0.0277,1.72257 1.58076,4.30361 2.72763,4.53298 0.53092,0.10619 0.83149,0.37281 1.07472,0.95335 0.25566,0.61022 0.76741,1.0376 2.10725,1.75987 1.19384,0.64355 1.68834,1.03518 1.51986,1.20366 -0.16849,0.16849 -0.80831,-0.0723 -1.96652,-0.74005 -1.13336,-0.65343 -1.9174,-0.95143 -2.30715,-0.87693 -0.38917,0.0744 -0.74825,-0.0616 -1.05356,-0.39894 -0.26869,-0.2969 -0.76791,-0.5118 -1.18891,-0.5118 -0.75124,0 -3.04062,0.60241 -3.57148,0.93977 -0.27217,0.17297 -0.79096,2.84546 -0.80328,4.13805 -0.005,0.49006 0.0621,0.50205 1.50285,0.27002 1.04068,-0.16759 1.69186,-0.42694 2.10214,-0.83722 0.73397,-0.73397 1.83313,-0.68737 2.17545,0.0922 0.31804,0.72432 0.21464,0.71088 11.11744,1.44515 l 1.97404,0.13294 -1.85066,-0.58763 c -2.58099,-0.81953 -6.29461,-2.60523 -6.00994,-2.88989 0.14122,-0.14122 1.36317,0.2728 3.1813,1.07789 1.62361,0.71895 3.64601,1.51234 4.49424,1.76308 0.84822,0.25074 1.54222,0.53748 1.54222,0.63721 0,0.0997 -0.63848,0.30274 -1.41885,0.45113 -10.60748,2.01715 -15.24956,4.33274 -18.1894,9.07332 -0.68343,1.10207 -1.76246,2.51735 -2.39783,3.14507 -2.59609,2.56485 -3.2782,5.86528 -1.76851,8.55704 0.89933,1.6035 3.12484,3.49348 4.88831,4.15131 1.28082,0.47779 1.61745,0.88138 0.74973,0.89885 -0.27143,0.005 -1.47399,-0.0762 -2.67235,-0.18143 z m -2.14554,-1.14705 c -0.4784,-0.23938 -1.20016,-0.66493 -1.60392,-0.94566 -0.40375,-0.28074 -1.23973,-0.79411 -1.85772,-1.14084 -1.82765,-1.02541 -4.44001,-3.97912 -5.624,-6.35888 -0.56927,-1.14419 -1.30313,-2.40615 -1.6308,-2.80435 -0.54623,-0.6638 -0.74591,-0.73012 -2.40095,-0.7974 -0.99285,-0.0404 -2.61021,-0.28482 -3.59415,-0.54324 -0.98394,-0.25843 -1.78898,-0.43172 -1.78898,-0.3851 0,0.0466 0.52744,0.39049 1.17209,0.76417 1.64149,0.95149 3.18549,2.46596 4.62667,4.53818 3.63878,5.23207 5.89578,6.82847 10.94656,7.74262 2.51658,0.45548 2.78324,0.44492 1.7552,-0.0695 z m 0.18275,-1.79393 c -1.4587,-1.25027 -2.16674,-2.59449 -2.33313,-4.4295 -0.19549,-2.15589 0.42805,-3.78088 2.38279,-6.20973 0.90328,-1.12236 1.93551,-2.54034 2.29383,-3.15106 1.08592,-1.85081 3.79211,-4.3084 5.99299,-5.44245 1.08573,-0.55944 2.16999,-1.19251 2.40947,-1.40682 0.23948,-0.21431 0.63007,-0.40399 0.86798,-0.42152 0.23791,-0.0175 0.55656,-0.1085 0.70811,-0.20216 0.46786,-0.28915 4.3591,-1.15994 5.19153,-1.16177 0.43306,-9.5e-4 0.85012,-0.10323 0.9268,-0.22729 0.14366,-0.23245 -1.17281,-0.37219 -6.56766,-0.69715 -3.04734,-0.18355 -3.13865,-0.17429 -3.62097,0.36721 -0.88569,0.99434 -1.77725,0.70229 -2.63789,-0.86409 -0.0189,-0.0343 -0.74648,0.0812 -1.61691,0.25688 -1.31788,0.26591 -1.59565,0.40943 -1.66062,0.85804 l -0.078,0.53871 1.40401,-0.62092 c 2.06396,-0.91278 2.24513,-0.57768 0.23256,0.43015 -1.96067,0.98183 -2.00825,1.07655 -2.08558,4.15158 -0.0306,1.21565 -0.1145,1.68133 -0.2446,1.35716 -0.16891,-0.42089 -0.23825,-0.34826 -0.47114,0.49351 -0.15019,0.54286 -0.66438,1.5662 -1.14265,2.27409 -0.47826,0.70789 -1.50765,2.53312 -2.28752,4.05607 -1.2761,2.49202 -1.4168,2.91864 -1.40649,4.26493 0.007,0.94342 0.18415,1.85257 0.47903,2.4615 0.55744,1.15113 3.55515,4.34036 4.07759,4.33809 0.20187,-8.7e-4 -0.16421,-0.45693 -0.81352,-1.01346 z m 2.81484,-15.84615 c 0.38726,-0.7592 2.68988,-3.10287 3.42422,-3.48527 1.10146,-0.57357 4.19484,-1.60976 4.19484,-1.40513 0,0.10947 -0.9716,0.56343 -2.15911,1.00879 -1.92672,0.7226 -2.35144,1.00387 -3.946,2.61322 -0.98279,0.9919 -1.66407,1.56268 -1.51395,1.26839 z m 0.093,-1.62141 c 0.72916,-0.79727 2.09743,-1.88981 2.09743,-1.67475 0,0.0606 -0.63848,0.64435 -1.41885,1.29719 -0.97799,0.81817 -1.18883,0.93548 -0.67858,0.37756 z m -49.02003,17.49559 c 0.30102,-0.40714 0.77336,-0.74026 1.04965,-0.74026 0.70187,0 1.45693,0.44454 1.45693,0.85776 0,0.65452 0.41179,0.59915 1.62387,-0.21834 1.43457,-0.96754 3.8603,-3.4312 6.13227,-6.22815 3.13601,-3.86065 5.63544,-5.43033 9.33169,-5.86047 1.18752,-0.13819 2.15912,-0.34765 2.15912,-0.46545 0,-0.11781 -0.3861,-0.18093 -0.85799,-0.14028 -0.47189,0.0407 -0.99378,-0.0619 -1.15975,-0.22785 -0.16597,-0.16597 -0.47388,-0.30218 -0.68424,-0.30269 -0.47231,-0.001 -2.00624,-0.89671 -2.40158,-1.40214 -0.25098,-0.32086 -0.63224,-0.14645 -2.72419,1.24622 -1.33781,0.89061 -2.95635,1.85107 -3.59677,2.13436 -0.93159,0.41209 -1.28407,0.75124 -1.76297,1.69631 -0.76136,1.50246 -2.07308,3.25302 -3.66778,4.89483 -0.6888,0.70915 -1.19175,1.34997 -1.11767,1.42405 0.3019,0.3019 3.19578,-1.97142 5.51177,-4.32982 4.36655,-4.44652 5.11753,-4.89379 8.47644,-5.04842 l 2.13406,-0.0983 -1.85067,0.24494 c -2.90617,0.38465 -4.13538,1.12484 -7.64393,4.60293 -3.0968,3.06991 -5.07044,4.60119 -6.6146,5.13205 -0.45893,0.15777 -0.9666,0.5534 -1.12816,0.87919 -0.35235,0.71053 -1.43179,0.90684 -2.2106,0.40203 -0.29659,-0.19225 -1.18882,-0.42467 -1.98272,-0.51649 -1.83314,-0.21203 -3.19201,-0.83327 -4.86926,-2.22611 -0.73141,-0.60738 -1.37113,-1.06302 -1.42161,-1.01254 -0.24018,0.24017 1.84685,3.17825 2.82975,3.98366 1.27038,1.04098 3.18587,2.04015 3.93285,2.05148 0.28532,0.004 0.74918,-0.31742 1.05609,-0.73255 z m 42.64061,-1.78898 c -1.6707,-2.24273 -1.7696,-2.44011 -2.24088,-4.4722 -0.60881,-2.62515 -0.4264,-3.24119 0.21971,-0.74196 0.66334,2.56594 1.0466,3.39073 2.42221,5.21272 0.93787,1.24219 1.65785,1.8905 0.82371,0.74171 -1.35925,-1.87199 -1.64927,-2.4227 -1.85614,-3.52461 -0.28624,-1.52469 -10e-4,-3.13958 0.85101,-4.82134 0.35279,-0.69618 0.58183,-1.42111 0.50898,-1.61095 -0.15676,-0.40851 -2.36874,-0.48992 -2.36874,-0.0872 0,0.45419 -1.19335,1.46932 -1.72729,1.46932 -0.28377,0 -0.79039,-0.27444 -1.12582,-0.60988 -0.48261,-0.48261 -0.77635,-0.58114 -1.40763,-0.47216 -1.43639,0.24798 -1.43596,0.24658 -0.54016,1.7342 0.46905,0.77893 0.85281,1.51928 0.85281,1.64523 0,0.52565 1.87159,3.25204 3.0225,4.40294 1.2508,1.2508 3.35414,2.90571 3.70747,2.91703 0.10501,0.003 -0.40877,-0.79892 -1.14174,-1.78286 z m -42.60159,-1.1634 c 0,-0.89338 1.969,-1.40183 2.40584,-0.62125 0.41825,0.74737 3.11565,-2.11745 5.10179,-5.41843 0.48513,-0.80631 0.88207,-1.54099 0.88207,-1.63261 0,-0.42207 -2.87618,0.66672 -3.40003,1.28709 -0.70686,0.83711 -1.66211,0.78658 -2.3901,-0.12641 -0.44968,-0.56395 -0.70582,-0.65299 -1.87842,-0.65299 -2.51394,0 -6.33298,-1.39572 -9.68328,-3.53888 -1.5938,-1.01953 -1.89512,-1.09231 -1.89512,-0.45769 0,0.78386 1.63646,5.40214 2.339,6.60093 1.413,2.41109 3.72437,4.18868 6.20313,4.7706 1.67238,0.39261 2.31512,0.33421 2.31512,-0.21036 z m -9.09984,-4.12334 c -0.29088,-0.50022 -0.36113,-0.34011 -0.12301,0.2804 0.0846,0.22053 0.20584,0.34898 0.26937,0.28545 0.0635,-0.0635 -0.002,-0.31816 -0.14636,-0.56585 z m 16.87421,-4.01318 c 0.95538,-0.24016 1.01722,-0.31991 1.8406,-2.37399 0.4686,-1.16901 1.32845,-2.96144 1.91079,-3.98316 1.07665,-1.88902 1.21902,-2.39966 0.83713,-3.00251 -0.15759,-0.24876 -0.28714,-0.11665 -0.49083,0.50055 -0.37453,1.13483 -2.36293,4.52795 -3.41923,5.83477 -1.10765,1.37035 -0.90053,1.59902 0.2724,0.30073 0.49403,-0.54684 0.89567,-0.91065 0.89252,-0.80847 -0.0119,0.38523 -1.69808,2.04602 -2.01131,1.98099 -0.17993,-0.0374 -0.29938,0.0709 -0.26546,0.24052 0.0339,0.16964 -0.0216,0.28373 -0.12337,0.25353 -0.2392,-0.071 -1.76654,1.47563 -1.61093,1.63125 0.0649,0.0649 0.3567,0.0181 0.64852,-0.10388 0.29182,-0.12201 0.97545,-0.33365 1.51917,-0.47033 z m -5.30681,0.11696 c 0,-0.81535 1.74534,-1.15579 2.48653,-0.48503 0.39617,0.35853 0.52117,0.27531 1.68234,-1.11998 2.28642,-2.74741 3.60989,-4.9298 5.57432,-9.19199 0.23273,-0.50495 0.42315,-1.30968 0.42315,-1.78829 0,-0.47861 0.0999,-0.80844 0.22208,-0.73295 0.12214,0.0755 0.22208,-0.15346 0.22208,-0.50877 0,-0.9023 -0.29826,-0.62178 -0.96663,0.90914 -0.93098,2.13243 -1.27183,2.71257 -2.53887,4.32119 -2.35154,2.98553 -5.31338,5.16462 -7.98788,5.87686 -2.62681,0.69954 -7.11594,0.42107 -9.82353,-0.60936 -1.30707,-0.49744 -0.94768,-0.0665 0.72436,0.86856 3.15158,1.76246 6.20845,2.71827 8.93334,2.79322 0.76962,0.0212 1.04871,-0.0673 1.04871,-0.3326 z m 30.86937,-0.72325 c -1.02453,-1.05706 -3.71759,-2.31024 -5.60738,-2.60933 l -1.45006,-0.2295 1.41884,0.0697 c 0.78037,0.0383 1.41715,0.005 1.41507,-0.074 -0.0108,-0.41149 -0.49766,-0.73053 -1.72351,-1.12947 -0.74644,-0.24292 -2.15801,-0.74764 -3.13682,-1.12161 -1.50356,-0.57446 -1.82407,-0.62642 -2.06595,-0.33498 -0.41973,0.50575 -2.13309,0.44537 -2.46506,-0.0869 -0.21167,-0.33937 -0.53243,-0.41329 -1.49818,-0.34527 -1.03953,0.0732 -1.26447,0.18024 -1.46005,0.69464 -0.39473,1.03823 -0.26981,1.07309 1.0052,0.2805 0.68002,-0.42272 1.29496,-0.71002 1.36654,-0.63844 0.0716,0.0716 -0.43372,0.49198 -1.12289,0.93422 -0.68917,0.44224 -1.21294,0.92844 -1.16393,1.08045 0.15134,0.46945 3.21468,1.87638 4.08987,1.87839 0.52158,0.001 1.09481,-0.22258 1.5489,-0.60467 0.44271,-0.37252 0.88493,-0.54848 1.14602,-0.45601 0.72882,0.25814 1.28879,0.87048 1.28879,1.40933 0,0.53035 0.25142,0.63654 4.07147,1.71963 0.67858,0.19239 2.11612,0.36137 3.19454,0.3755 l 1.96076,0.0257 z m 3.24461,0.67956 c 0.50893,-0.0841 0.92533,-0.29122 0.92533,-0.46023 0,-0.36413 -2.69142,-1.78902 -4.88744,-2.58752 -2.18069,-0.79292 -2.47881,-0.35397 -0.56279,0.82866 0.81212,0.50127 1.73218,1.23513 2.04456,1.63078 0.59512,0.75376 0.95828,0.83989 2.48034,0.58831 z m -25.75341,-1.11015 c 2.59539,-1.53571 4.46471,-2.83759 4.46754,-3.11138 0.002,-0.16965 -0.0843,-0.30845 -0.1912,-0.30845 -0.10691,0 -0.5633,-0.30798 -1.01419,-0.6844 l -0.8198,-0.68439 0.53573,-0.95382 c 0.63557,-1.13159 0.38026,-1.63132 -0.52905,-1.03552 -0.93812,0.61468 -4.23366,7.30622 -3.59826,7.30622 0.14105,0 0.6582,-0.23771 1.14923,-0.52826 z m 2.49668,-6.3809 c 0,-0.13571 0.11104,-0.24675 0.24676,-0.24675 0.13571,0 0.24675,0.11104 0.24675,0.24675 0,0.13572 -0.11104,0.24676 -0.24675,0.24676 -0.13572,0 -0.24676,-0.11104 -0.24676,-0.24676 z m 28.60002,6.66241 c 0.23622,0 0.73187,-0.46184 1.10144,-1.02631 l 0.67194,-1.02631 -0.7008,-1.1328 -0.7008,-1.13281 -2.08643,0.0833 c -2.22067,0.0886 -3.91288,-0.36897 -5.47336,-1.48012 -0.39212,-0.27922 -0.75677,-0.46384 -0.81033,-0.41028 -0.0536,0.0536 0.4102,0.73722 1.03057,1.51924 1.38363,1.74414 1.28285,2.09849 -0.13593,0.47799 -2.09546,-2.39337 -2.40941,-2.66262 -3.41319,-2.92724 -0.93664,-0.24691 -1.07207,-0.22007 -1.61161,0.31947 -0.51476,0.51476 -0.68029,0.55513 -1.31267,0.32015 -0.398,-0.14789 -0.8435,-0.42577 -0.98999,-0.61751 -0.22759,-0.29789 -0.58665,-0.27429 -2.46756,0.16218 -1.21066,0.28094 -2.29424,0.59693 -2.40796,0.7022 -0.11371,0.10527 1.2093,0.6633 2.94002,1.24007 2.52818,0.84251 3.23514,0.99347 3.5963,0.76793 0.68358,-0.42691 1.11332,-0.34093 1.63952,0.32802 0.26336,0.33482 1.02094,0.78902 1.68351,1.00934 0.66256,0.22031 2.11515,0.88057 3.22796,1.46723 1.70316,0.89788 2.0691,1.01148 2.31271,0.71796 0.48753,-0.58744 1.87034,-0.43526 2.37656,0.26155 0.24384,0.33564 0.59123,0.55772 0.77197,0.49351 0.18075,-0.0642 0.5219,-0.11675 0.75813,-0.11675 z m 4.18563,-3.40218 c 0.38782,-0.77526 0.82418,-1.96476 0.96969,-2.64334 0.34801,-1.62286 0.57618,-3.3312 0.44492,-3.3312 -0.0575,0 -0.86389,0.43816 -1.79189,0.97368 -1.23398,0.7121 -1.81658,1.22587 -2.16857,1.91236 -0.26471,0.51627 -0.63377,1.12302 -0.82013,1.34832 -0.2926,0.35374 -0.25742,0.53897 0.25771,1.35716 0.32811,0.52113 0.78424,1.25475 1.01362,1.63026 0.34959,0.57229 0.49574,0.64065 0.9033,0.42253 0.26742,-0.14312 0.80353,-0.89452 1.19135,-1.66977 z m -44.47965,0.90837 c 4.26373,-1.31693 7.92661,-5.05149 11.04558,-11.26173 0.62335,-1.24115 1.48318,-2.65507 1.91075,-3.14204 0.42757,-0.48698 0.70237,-0.96044 0.61067,-1.05214 -0.0917,-0.0917 -0.63392,-0.1458 -1.20493,-0.12023 l -1.0382,0.0465 0.94962,-0.36048 c 0.52229,-0.19827 1.24405,-0.64138 1.60391,-0.98471 0.35986,-0.34332 1.60747,-1.55294 2.77247,-2.68804 1.18838,-1.15789 2.50617,-2.20413 3.00204,-2.38344 1.58595,-0.57348 1.3108,-1.88303 -0.7941,-3.77952 -1.73757,-1.565527 -2.98276,-2.010967 -5.5599,-1.988967 -2.37316,0.0203 -2.73872,0.13477 -6.47733,2.029067 -0.98394,0.49855 -1.78898,0.99122 -1.78898,1.09481 0,0.1036 0.48194,0.18836 1.07099,0.18836 2.34664,0 5.84369,2.51455 7.18888,5.16915 0.93898,1.853 0.64629,2.05508 -0.36708,0.25345 -0.95592,-1.6995 -2.28218,-3.03188 -4.04804,-4.06675 -0.92359,-0.54125 -1.59014,-0.7192 -3.04324,-0.81246 -1.35592,-0.087 -1.81344,-0.043 -1.68664,0.16211 0.0957,0.15484 0.32113,0.28152 0.50098,0.28152 0.41822,0 4.40139,1.98715 4.26219,2.12635 -0.0575,0.0575 -0.92575,-0.27745 -1.92956,-0.74422 -2.50456,-1.16461 -3.36943,-1.34536 -1.59152,-0.33262 1.59182,0.90674 2.61167,2.00276 3.21378,3.45379 0.51336,1.23715 0.31085,1.17556 -0.35876,-0.10911 -0.63018,-1.20904 -1.79289,-2.33351 -3.27008,-3.16259 l -1.0523,-0.5906 0.4299,0.60484 c 1.71422,2.41174 2.39624,4.04562 2.36399,5.66332 l -0.0221,1.1104 -0.16625,-1.1104 c -0.20907,-1.39643 -1.69219,-4.53754 -2.67973,-5.67538 l -0.74956,-0.86364 0.13688,6.04551 c 0.0753,3.32504 0.15578,6.07021 0.17888,6.10039 0.16142,0.21088 1.96756,-1.63753 2.31005,-2.36411 0.37507,-0.7957 0.51463,-0.88944 1.21892,-0.81874 0.49279,0.0495 1.17137,-0.13149 1.78382,-0.47571 0.54366,-0.30556 1.05556,-0.48847 1.13754,-0.40648 0.082,0.082 -0.22213,0.34015 -0.67581,0.57371 -0.45369,0.23355 -1.62081,1.22696 -2.5936,2.20757 -1.68382,1.69737 -2.29703,2.79348 -2.30138,4.1137 -7.6e-4,0.2295 -0.11557,0.48784 -0.25514,0.57409 -0.13956,0.0863 -0.3894,0.47084 -0.5552,0.85463 -0.28334,0.65588 -2.44129,2.59373 -3.93317,3.532 -1.91892,1.20684 -5.74289,2.13747 -8.80887,2.14379 -1.14228,0.002 -2.02697,0.0542 -1.96599,0.11516 0.061,0.061 1.16213,0.38882 2.44699,0.72854 3.09136,0.81735 6.3782,0.86279 8.77867,0.12136 z m 6.53161,-14.92303 c 0.0118,-0.28746 0.0703,-0.34593 0.14908,-0.14908 0.0713,0.17812 0.0625,0.39095 -0.0195,0.47294 -0.082,0.082 -0.14031,-0.0637 -0.1296,-0.32386 z m 3.4351,-5.56156 c -0.85996,-0.75388 -0.86025,-0.75486 -0.0691,-0.22863 0.43697,0.29066 0.85993,0.63435 0.9399,0.76375 0.23803,0.38514 0.0406,0.26382 -0.87075,-0.53512 z m -15.61243,18.64066 c 2.79409,-0.57714 4.7464,-1.45283 6.54315,-2.93487 1.58141,-1.30442 2.16012,-2.24158 2.16012,-3.49809 0,-0.31903 0.11759,-0.58006 0.26132,-0.58006 0.14372,0 0.19269,0.11104 0.10881,0.24675 -0.0839,0.13572 -0.0627,0.24309 0.0471,0.2386 0.1098,-0.005 0.50104,-0.67548 0.86944,-1.49109 l 0.6698,-1.48293 -0.6698,0.48139 c -0.3684,0.26477 -1.822,1.59115 -3.23024,2.9475 -2.78374,2.68117 -5.3672,4.25199 -9.22216,5.60733 -1.05179,0.3698 -1.91235,0.71348 -1.91235,0.76374 0,0.23443 2.68061,0.0517 4.37478,-0.29827 z M 199.02,123.14334 c 0.14522,-0.31874 0.47564,-0.64669 0.73425,-0.72877 0.40389,-0.12819 0.9361,-1.00573 0.93513,-1.54191 -1.7e-4,-0.093 -0.74969,-0.15483 -1.6656,-0.13751 -1.23747,0.0234 -2.01396,0.19711 -3.02245,0.67617 -0.74644,0.35457 -1.7458,0.65092 -2.2208,0.65857 l -0.86365,0.0139 1.23378,0.65108 c 2.49053,1.31429 4.38423,1.47315 4.86934,0.40847 z m -21.71042,-0.81818 c 0.25582,-0.0104 0.43182,-0.21145 0.43182,-0.4932 0,-0.26158 0.30056,-0.71201 0.6679,-1.00097 0.77911,-0.61284 1.7061,-0.50081 2.31043,0.27922 0.38223,0.49337 0.41587,0.49437 2.52924,0.0746 1.93071,-0.38343 2.46643,-0.69128 2.00534,-1.15236 -0.0751,-0.0751 -0.90788,0.0619 -1.85066,0.3044 -0.94279,0.24251 -1.71415,0.35459 -1.71415,0.24907 0,-0.10551 0.77728,-0.39345 1.72729,-0.63985 0.95001,-0.2464 1.72729,-0.57818 1.72729,-0.73729 0,-0.15911 0.23278,-0.58523 0.51729,-0.94692 l 0.5173,-0.65764 -0.70237,-0.54534 c -0.38629,-0.29993 -0.93675,-0.77576 -1.22323,-1.05739 -0.38557,-0.37904 -0.74786,-0.48555 -1.39467,-0.41004 -0.85748,0.1001 -1.68883,-0.39571 -1.94324,-1.15895 -0.0704,-0.21124 -0.36888,-0.19092 -1.12755,0.0768 -1.81457,0.64021 -3.8387,2.17853 -6.46603,4.91412 -1.23427,1.28513 -1.15529,1.72213 0.36269,2.0069 0.47321,0.0888 0.99587,0.37834 1.16145,0.64348 0.23143,0.37059 0.5012,0.45742 1.16655,0.3755 0.47602,-0.0586 1.05981,-0.11448 1.29731,-0.12415 z m 18.64121,-1.34862 c 0.8015,-0.41447 1.05409,-0.88978 0.47285,-0.88978 -0.17488,0 -0.75356,-0.22208 -1.28596,-0.49351 -0.97895,-0.49909 -3.93643,-0.68821 -5.25182,-0.33582 -0.53818,0.14417 -0.51694,0.1911 0.47311,1.04534 0.57012,0.49192 1.21232,0.97669 1.42711,1.07726 0.63532,0.2975 3.31032,0.0383 4.16471,-0.40349 z m -6.2724,-0.58133 c -0.64266,-0.61457 -0.71746,-0.63466 -0.79288,-0.21297 -0.0925,0.51722 0.33468,0.88201 1.03963,0.88777 0.39179,0.003 0.35391,-0.10039 -0.24675,-0.6748 z m 16.3955,-2.60009 c 0.0693,-0.60383 0.009,-0.67311 -0.49352,-0.5693 -0.31485,0.065 -0.99701,0.18668 -1.5159,0.27037 -0.84366,0.13608 -1.00538,0.28586 -1.52907,1.41621 -0.3221,0.69522 -0.53631,1.34386 -0.47601,1.44141 0.0603,0.0976 0.97045,-0.28355 2.02258,-0.84691 1.60633,-0.8601 1.92562,-1.13448 1.99192,-1.71178 z m -4.77682,2.14252 c 0.38694,-0.38693 1.36666,-2.14607 1.36666,-2.4539 0,-0.0853 -0.66646,-0.1175 -1.48103,-0.0715 -0.84305,0.0476 -1.51858,-0.0227 -1.5682,-0.16315 -0.0479,-0.13571 -0.0893,0.0675 -0.092,0.45152 -0.003,0.47233 -0.31051,1.01128 -0.94944,1.6656 l -0.94457,0.96733 h 1.63637 c 1.17283,0 1.7485,-0.11214 2.03224,-0.39588 z m -27.06651,-2.0651 c 2.23333,-2.15658 4.91559,-3.95467 5.8993,-3.95467 1.04461,0 0.72319,-0.36758 -1.54074,-1.76202 -1.29102,-0.79519 -2.39855,-1.4458 -2.46116,-1.4458 -0.0626,0 -0.11385,0.14779 -0.11385,0.32843 0,0.45509 -1.07675,0.98844 -1.6367,0.81072 -0.6449,-0.20468 -1.58933,1.35844 -2.54596,4.21379 -0.74303,2.21778 -0.75023,2.2844 -0.33994,3.14478 0.23054,0.48344 0.42636,0.87789 0.43515,0.87653 0.009,-0.001 1.04555,-0.99664 2.3039,-2.21176 z m 24.4213,0.80166 c 0.0575,-0.17243 -0.44779,-0.21683 -1.50335,-0.1321 -1.93388,0.15523 -3.81446,-0.36496 -7.76788,-2.14871 -4.99383,-2.25316 -6.7121,-2.26891 -3.95277,-0.0362 0.85786,0.69413 1.68393,1.26205 1.83573,1.26205 0.15179,0 0.55696,0.2604 0.90037,0.57866 0.58564,0.54276 0.8061,0.57721 3.5523,0.5552 2.72109,-0.0218 3.01506,0.0229 4.16169,0.63358 l 1.23378,0.65704 0.72678,-0.55488 c 0.39973,-0.30519 0.76573,-0.67177 0.81335,-0.81461 z m -0.46655,-0.83238 c 1.00889,-0.3517 0.98937,-0.85455 -0.0464,-1.1964 -0.68654,-0.22658 -1.00464,-0.18961 -1.91236,0.2222 -0.59885,0.2717 -1.53299,0.50807 -2.07585,0.52529 l -0.98702,0.0313 0.98702,0.32529 c 1.23353,0.40654 3.01628,0.44734 4.03465,0.0923 z m -5.14505,-0.55635 c 0,-0.0478 -0.694,-0.62638 -1.54222,-1.28565 -0.84823,-0.65927 -2.26399,-1.88252 -3.14614,-2.71832 -3.34184,-3.16625 -5.71669,-3.95642 -10.03864,-3.34008 -1.05415,0.15033 -1.29629,0.11465 -1.37826,-0.20308 -0.0852,-0.33012 0.31096,-0.39545 2.75935,-0.45513 4.36015,-0.10628 6.15111,0.66915 9.89133,4.28263 2.07353,2.00327 3.09032,2.86649 3.84083,3.26073 0.52935,0.27807 1.85943,0.0924 2.69737,-0.37654 0.39421,-0.22061 0.30901,-0.31567 -0.67185,-0.74955 -1.62014,-0.71667 -4.59967,-2.78286 -6.14085,-4.25846 -0.73118,-0.70006 -0.99629,-1.03848 -0.58915,-0.75204 0.40715,0.28643 1.60399,1.13976 2.65965,1.89628 2.19023,1.5696 4.92594,3.0589 5.61891,3.0589 0.41255,0 1.4428,-1.13777 1.19328,-1.3178 -0.0523,-0.0377 -0.81808,-0.18633 -1.70171,-0.33019 -0.88363,-0.14386 -2.20937,-0.52087 -2.9461,-0.83781 -2.46976,-1.06246 -7.24629,-5.01569 -9.21137,-7.62366 -0.35479,-0.47086 -0.70952,-0.79167 -0.7883,-0.71289 -0.0788,0.0788 0.4428,0.91566 1.15905,1.85975 0.71626,0.94409 1.45681,1.98665 1.64568,2.3168 0.33857,0.59185 0.33634,0.59401 -0.15844,0.15432 -0.27601,-0.24529 -1.09655,-1.27754 -1.82342,-2.29389 -1.12364,-1.57115 -1.40556,-1.82684 -1.88236,-1.70717 -0.56844,0.14267 -1.52011,-0.2216 -1.83153,-0.70106 -0.38518,-0.59301 -3.21392,1.3927 -4.44314,3.11898 -0.47536,0.66757 -0.48542,0.75302 -0.11317,0.96134 0.22471,0.12575 0.40857,0.47602 0.40857,0.77837 0,0.88665 0.62362,1.53878 2.64526,2.76614 1.55243,0.94251 1.98167,1.10419 2.33901,0.88102 0.24071,-0.15032 0.77745,-0.27332 1.19275,-0.27332 0.57634,0 0.85348,0.17143 1.17069,0.72414 0.29693,0.51737 0.73402,0.81137 1.53075,1.02962 0.61333,0.16801 2.33658,0.82883 3.82946,1.46849 3.40555,1.4592 3.82471,1.61034 3.82471,1.37913 z m -4.11918,-4.90982 c -0.27712,-0.30536 -0.69727,-0.85961 -0.93365,-1.23166 -0.23638,-0.37205 -0.54583,-0.60474 -0.68767,-0.51708 -0.15015,0.0928 -0.18433,0.0404 -0.0818,-0.12549 0.0968,-0.15669 0.20904,-0.28488 0.24935,-0.28488 0.0403,0 0.53002,0.61072 1.08824,1.35715 1.07002,1.43081 1.205,1.72692 0.36555,0.80196 z m 12.54824,3.82471 c 0.71362,-0.77452 1.44117,-1.81829 1.44117,-2.06754 0,-0.0928 -0.22208,-0.11067 -0.49351,-0.0397 -0.27143,0.071 -0.49351,0.20867 -0.49351,0.30598 0,0.0973 -0.44416,0.65803 -0.98703,1.24606 -0.54286,0.58802 -0.98702,1.10618 -0.98702,1.15145 0,0.0453 0.20131,0.0823 0.44735,0.0823 0.24604,0 0.72869,-0.30536 1.07255,-0.67857 z m 1.90419,-0.59391 c 0.77515,-1.86521 0.52528,-1.84097 -1.03474,0.1004 l -0.94186,1.17209 h 0.72389 c 0.63874,0 0.7861,-0.14969 1.25271,-1.27249 z m 2.39504,1.12777 c 0.43697,-0.11733 0.55382,-0.43999 0.78066,-2.15575 0.14672,-1.10976 0.24555,-2.03931 0.21961,-2.06566 -0.0259,-0.0263 -0.5127,0.25126 -1.08169,0.61689 -0.97761,0.62822 -1.1568,0.90747 -2.20795,3.4408 -0.13599,0.32775 1.29685,0.43022 2.28937,0.16372 z m -4.59975,-2.53173 c -0.92975,-0.13689 -2.29429,0.3862 -3.04123,1.16583 l -0.69095,0.7212 0.79371,0.17433 c 0.55524,0.12195 0.85746,0.0737 1.00587,-0.16049 0.16006,-0.25261 0.21548,-0.21365 0.22573,0.15869 0.0108,0.39238 0.24659,0.24068 1.15062,-0.74027 1.08498,-1.17728 1.11045,-1.23769 0.55625,-1.31929 z m -28.87351,-1.39502 c 0,-0.13572 -0.15869,0.0308 -0.35265,0.37013 -0.19395,0.33929 -0.35264,0.72793 -0.35264,0.86365 0,0.13571 0.15869,-0.0308 0.35264,-0.37013 0.19396,-0.33929 0.35265,-0.72793 0.35265,-0.86365 z m 28.9666,0.76663 c 0.34301,-0.0179 0.937,-0.67505 1.86097,-2.05873 0.74643,-1.11781 1.40318,-1.98634 1.45944,-1.93007 0.0563,0.0563 -0.38593,0.85979 -0.98267,1.78561 -0.59674,0.92582 -1.16903,1.82212 -1.27176,1.99176 -0.12408,0.20492 -0.0262,0.30845 0.29162,0.30845 0.35715,0 0.76583,-0.5785 1.61245,-2.2825 1.37146,-2.76032 3.38245,-6.17391 3.54272,-6.01364 0.19161,0.19161 -0.49572,1.8644 -0.71132,1.73116 -0.10951,-0.0677 -0.14408,0.0215 -0.0768,0.1982 0.0672,0.17669 -0.37717,1.5427 -0.98759,3.03557 -0.61042,1.49288 -1.11088,2.74928 -1.11212,2.79201 -0.001,0.0427 0.43614,-0.23487 0.97196,-0.61689 0.88294,-0.6295 0.98781,-0.82176 1.11918,-2.05174 0.182,-1.70393 0.59044,-3.25578 0.81963,-3.11413 0.096,0.0594 0.36757,-0.35383 0.60337,-0.91821 l 0.42872,-1.02615 -0.50859,0.61689 c -0.504,0.61132 -0.50598,0.61159 -0.2198,0.0303 0.22913,-0.46538 0.2198,-0.63105 -0.0451,-0.80177 -0.22976,-0.14806 -0.51691,-0.004 -0.9205,0.4632 -4.2754,4.94459 -5.78004,6.54308 -6.83526,7.26159 -1.00673,0.68549 -1.08706,1.01314 -0.1934,0.78885 0.35809,-0.0899 0.87779,-0.17528 1.1549,-0.18977 z m 0.76947,-1.46466 c 0.38002,-0.49824 0.74085,-0.90588 0.80184,-0.90588 0.17141,0 -0.89685,1.44344 -1.21275,1.63868 -0.15402,0.0952 0.0309,-0.23457 0.41091,-0.7328 z m -3.42224,0.92411 c -0.10376,-0.41342 -0.0698,-0.5818 0.0966,-0.47895 0.14116,0.0872 0.25665,0.332 0.25665,0.54391 0,0.27224 0.34392,0.11129 1.17209,-0.54851 1.68658,-1.34371 3.26436,-2.88243 3.14825,-3.0703 -0.0549,-0.0889 0.39024,-0.75903 0.98925,-1.48926 1.75888,-2.1442 1.02439,-1.75011 -1.21898,0.65405 -1.43931,1.54246 -2.53875,2.46857 -3.60567,3.03724 -1.38781,0.73969 -1.67977,0.80588 -3.04568,0.6904 -2.92455,-0.24723 -4.09333,-0.8968 -9.14454,-5.08219 -1.04176,-0.86319 -1.95313,-1.51042 -2.02527,-1.43827 -0.22016,0.22016 3.38224,3.61151 5.21747,4.91181 2.87201,2.03487 4.93048,2.85646 7.24436,2.8914 1.03593,0.0156 1.06958,-0.007 0.91544,-0.62133 z m 3.93124,-3.06377 c 0.24564,-0.27143 0.50214,-0.49351 0.56999,-0.49351 0.0679,0 -0.0776,0.22208 -0.32324,0.49351 -0.24564,0.27143 -0.50214,0.49351 -0.57,0.49351 -0.0679,0 0.0776,-0.22208 0.32325,-0.49351 z m 2.47063,1.70971 c 0.40883,-1.0082 0.88066,-2.07545 1.0485,-2.37168 0.44459,-0.78466 0.86861,-1.97049 0.60152,-1.68221 -0.32335,0.349 -1.9898,3.64683 -2.97698,5.89129 -0.0522,0.11875 0.0577,0.16636 0.24433,0.1058 0.18661,-0.0606 0.67379,-0.935 1.08263,-1.9432 z m 4.02869,-0.72587 c 0.86031,-0.26968 1.86893,-0.49033 2.24136,-0.49033 0.37244,0 0.74419,-0.067 0.82611,-0.14895 0.0819,-0.0819 -0.27901,-0.77593 -0.80207,-1.54222 -0.52306,-0.7663 -1.0983,-1.8652 -1.2783,-2.44199 -0.18001,-0.57679 -0.41269,-1.04871 -0.51708,-1.04871 -0.28881,0 -1.30338,2.43506 -1.64795,3.95526 -0.1683,0.74249 -0.3593,1.54431 -0.42445,1.78181 -0.0652,0.2375 -0.0832,0.43039 -0.0402,0.42864 0.0431,-0.002 0.78221,-0.22383 1.64253,-0.49351 z m -1.22876,-2.95789 c 0,-0.2333 -0.0784,-0.18769 -0.21207,0.12338 -0.11664,0.27143 -0.21207,0.66007 -0.21207,0.86365 0,0.2333 0.0784,0.18769 0.21207,-0.12338 0.11664,-0.27143 0.21207,-0.66007 0.21207,-0.86365 z m 4.88542,34.6259 c -0.0893,-0.0893 -0.17344,-0.44922 -0.18696,-0.79981 l -0.0246,-0.63746 -0.17129,0.6156 c -0.0942,0.33857 -0.36074,0.65208 -0.59229,0.69667 -0.36337,0.07 -0.42147,-0.14942 -0.42438,-1.60262 -0.004,-2.02362 -0.18273,-2.80188 -0.60599,-2.63946 -0.48595,0.18648 -0.57408,-0.37627 -0.34868,-2.22628 0.28632,-2.34989 0.3814,-2.55924 1.24884,-2.74976 0.41906,-0.092 0.65273,-0.23856 0.51926,-0.3256 -0.13346,-0.087 -0.36603,-0.39274 -0.5168,-0.67935 -0.42047,-0.79929 0.12846,-1.38904 1.19817,-1.28729 0.7923,0.0754 0.85275,0.14155 0.85275,0.93363 0,0.69909 -0.11102,0.8834 -0.61689,1.02411 l -0.61689,0.1716 0.67858,0.0246 c 0.37322,0.0135 0.91525,0.26127 1.20451,0.55053 0.47364,0.47363 0.50987,0.69878 0.36439,2.26413 -0.0889,0.95602 -0.29034,1.89338 -0.44774,2.08304 -0.1574,0.18966 -0.33553,1.28491 -0.39583,2.4339 -0.0603,1.14898 -0.16856,2.03015 -0.24056,1.95815 -0.072,-0.072 -0.26239,-0.0218 -0.42308,0.11156 -0.16069,0.13336 -0.36523,0.16941 -0.45452,0.0801 z m -0.16237,-10.44385 c 0,-0.13572 0.18877,-0.24676 0.41949,-0.24676 0.31243,0 0.34815,-0.0713 0.13996,-0.27952 -0.15374,-0.15373 -0.45354,-0.21274 -0.66624,-0.13112 -0.42294,0.1623 -0.53778,0.90416 -0.13996,0.90416 0.13571,0 0.24675,-0.11104 0.24675,-0.24676 z m 6.89182,5.85271 c -0.01,-0.57253 -0.1149,-1.26304 -0.23413,-1.53447 -0.18262,-0.41574 -0.21166,-0.37686 -0.18428,0.24675 0.0179,0.40715 0.004,1.07339 -0.03,1.48054 -0.0548,0.64902 -0.0886,0.67944 -0.27454,0.24675 -0.11664,-0.27143 -0.23095,-0.82663 -0.25401,-1.23378 -0.0414,-0.73028 -0.0446,-0.73194 -0.23951,-0.12337 l -0.19756,0.61688 -0.0246,-0.66251 c -0.0382,-1.02947 -0.46452,-1.92842 -0.9145,-1.92842 -0.35812,0 -0.39307,-0.25917 -0.28286,-2.09768 0.13528,-2.25674 0.40672,-2.83744 1.32636,-2.83744 0.6621,0 0.78627,-0.36411 0.20078,-0.58879 -0.26577,-0.10198 -0.36178,-0.39824 -0.30844,-0.95173 0.0708,-0.73444 0.15732,-0.81026 1.00476,-0.88036 0.66417,-0.0549 0.96932,0.0328 1.07533,0.309 0.22029,0.57407 -0.11025,1.61837 -0.51225,1.61837 -0.19298,0 -0.42408,0.11847 -0.51357,0.26326 -0.0895,0.1448 -0.0128,0.23281 0.1705,0.19559 0.71727,-0.14567 1.68603,0.30175 1.81961,0.84038 0.0752,0.30329 0.1602,1.38424 0.18883,2.40211 0.0452,1.60488 -0.002,1.8417 -0.35816,1.78312 -0.33962,-0.0559 -0.43991,0.24926 -0.58271,1.77314 -0.1139,1.21549 -0.28886,1.88533 -0.51511,1.97215 -0.2575,0.0988 -0.34694,-0.12715 -0.35997,-0.90949 z m 0.14072,-9.30728 c 0,-0.53514 -0.96268,-0.46143 -1.06728,0.0817 -0.0675,0.35041 0.0426,0.43351 0.49013,0.37013 0.31743,-0.045 0.57715,-0.24828 0.57715,-0.45186 z m 9.60025,4.3318 c -0.29739,-0.21746 -0.37296,-0.49304 -0.25934,-0.94572 0.31921,-1.27185 2.23937,-1.03818 2.08633,0.2539 -0.0919,0.77589 -1.15927,1.18007 -1.82699,0.69182 z m 1.19531,-0.77839 c -0.0931,-0.33548 -0.86948,-0.26634 -0.98758,0.088 -0.0682,0.20445 0.093,0.28015 0.47295,0.22217 0.31698,-0.0484 0.54856,-0.18793 0.51463,-0.31012 z m -6.96819,-1.6995 c -0.37774,-0.45515 -0.14238,-1.5007 0.38322,-1.70239 0.65623,-0.25182 1.34141,0.29196 1.34141,1.06458 0,0.97667 -1.10442,1.38511 -1.72463,0.63781 z m 1.18347,-0.75 c -0.076,-0.076 -0.21395,0.061 -0.30662,0.30433 -0.13391,0.35168 -0.10556,0.38002 0.13814,0.13814 0.16863,-0.16739 0.24445,-0.3665 0.16848,-0.44247 z m -0.59846,-0.006 c 0.0843,-0.21959 0.0429,-0.31864 -0.097,-0.23219 -0.13416,0.0829 -0.24393,0.25524 -0.24393,0.38295 0,0.35494 0.17687,0.27673 0.34091,-0.15076 z m -86.55046,-0.55301 c -0.0665,-0.10761 -0.19937,-1.16249 -0.29525,-2.34418 -0.12269,-1.51215 -0.26959,-2.14852 -0.49596,-2.14852 -0.50485,0 -0.53946,-0.24192 -0.33177,-2.31946 0.20132,-2.01381 0.40524,-2.35835 1.39985,-2.36512 0.65796,-0.005 0.70713,-0.20841 0.14868,-0.61676 -0.28479,-0.20825 -0.35851,-0.48855 -0.24618,-0.93609 0.20918,-0.83347 1.03247,-1.09791 1.6574,-0.53235 0.6096,0.55168 0.6038,1.0103 -0.0177,1.39842 -0.60867,0.38012 -0.64342,0.67571 -0.0617,0.52471 1.0485,-0.27217 1.75135,1.21759 1.77823,3.76916 0.008,0.79924 -0.0905,1.04642 -0.4573,1.14233 -0.42018,0.10988 -0.45608,0.3084 -0.35096,1.94114 0.0891,1.38404 0.0276,1.93669 -0.25718,2.31225 -0.32834,0.43293 -0.44028,0.45316 -0.91192,0.1648 -0.38561,-0.23576 -0.61313,-0.2532 -0.80464,-0.0617 -0.31605,0.31605 -0.58657,0.34166 -0.75363,0.0714 z m 4.69791,-1.94289 c -0.0905,-0.0905 -0.16451,-1.08984 -0.16451,-2.2208 0,-1.66332 -0.0707,-2.0563 -0.37013,-2.0563 -0.29728,0 -0.37013,-0.37774 -0.37013,-1.91914 0,-2.16957 0.3848,-3.01598 1.37115,-3.01598 0.66714,0 0.81123,-0.36076 0.23276,-0.58274 -0.20357,-0.0781 -0.37013,-0.40952 -0.37013,-0.73645 0,-1.30793 1.65097,-1.56673 2.08526,-0.32689 0.21198,0.60516 0.16336,0.76047 -0.36516,1.16661 l -0.6097,0.4685 0.67289,0.005 c 0.95008,0.008 1.33955,0.7786 1.52998,3.02825 0.13418,1.5851 0.1003,1.91235 -0.19798,1.91235 -0.19792,0 -0.41586,-0.1388 -0.48432,-0.30844 -0.0684,-0.16965 -0.13322,0.76671 -0.14394,2.08079 -0.0179,2.1919 -0.0617,2.40266 -0.53111,2.55163 -0.34186,0.1085 -0.61527,0.0207 -0.82396,-0.26475 -0.28582,-0.39088 -0.32551,-0.39278 -0.46765,-0.0224 -0.15759,0.41069 -0.69331,0.54026 -0.99332,0.24025 z m 1.55901,-10.44599 c 0.20801,0.31687 0.24352,0.30799 0.24675,-0.0617 0.002,-0.26858 -0.18279,-0.43183 -0.48973,-0.43183 -0.30695,0 -0.49208,0.16325 -0.48973,0.43183 0.003,0.36968 0.0387,0.37856 0.24675,0.0617 0.21598,-0.32901 0.26998,-0.32901 0.48596,0 z m 86.14275,6.0707 c -0.14099,-0.16988 -0.24872,-1.1233 -0.2394,-2.11872 0.0136,-1.45824 -0.0645,-1.85544 -0.40241,-2.04453 -0.3624,-0.20281 -0.39619,-0.4907 -0.2488,-2.11997 0.17616,-1.94736 0.61191,-2.99569 1.24521,-2.99569 0.43422,0 0.44974,-0.11981 0.10015,-0.77303 -0.2017,-0.37688 -0.17113,-0.63603 0.12906,-1.09418 0.21635,-0.33019 0.54015,-0.60035 0.71956,-0.60035 0.40899,0 1.14296,0.7923 1.14296,1.23378 0,0.1822 -0.18377,0.53434 -0.40838,0.78253 -0.38579,0.42629 -0.37249,0.45125 0.24042,0.45125 0.88405,0 1.30659,0.91059 1.45991,3.14614 0.1126,1.64178 0.0384,1.90341 -0.48999,1.72729 -0.10179,-0.0339 -0.24059,0.99319 -0.30845,2.28249 l -0.12338,2.34418 -1.28006,0.0438 c -0.77384,0.0265 -1.38144,-0.0783 -1.5364,-0.26503 z m 1.39355,-3.16518 c -0.0521,-0.58038 -0.0955,-0.16692 -0.0964,0.91881 -8.9e-4,1.08572 0.0417,1.56058 0.0948,1.05523 0.053,-0.50534 0.0537,-1.39366 0.002,-1.97404 z m 0.19928,-7.57785 c -0.0895,-0.14474 -0.27151,-0.26317 -0.40457,-0.26317 -0.13306,0 -0.0987,0.15536 0.0763,0.34525 0.35426,0.3844 0.58151,0.32759 0.32832,-0.0821 z m 3.85859,8.79645 c -0.14752,-0.17774 -0.30105,-1.20623 -0.34119,-2.28553 -0.0575,-1.54511 -0.15166,-1.96323 -0.4431,-1.96646 -0.30308,-0.003 -0.36209,-0.3826 -0.32572,-2.0935 0.0537,-2.52351 0.39656,-2.96088 2.32142,-2.96088 1.62918,0 2.0435,0.62852 2.16474,3.28387 0.0862,1.88811 0.0728,1.94344 -0.43183,1.78328 -0.5035,-0.15981 -0.52078,-0.0917 -0.52078,2.05157 0,2.31855 -0.1689,2.6688 -1.06449,2.20753 -0.29043,-0.14959 -0.56053,-0.13681 -0.76922,0.0364 -0.23408,0.19427 -0.39461,0.17896 -0.58983,-0.0563 z m 0.20085,-9.92557 c -0.4514,-0.54391 -0.0365,-1.70025 0.64533,-1.79862 0.67898,-0.098 1.13796,0.49967 1.03999,1.35414 -0.0615,0.53655 -0.22391,0.71029 -0.71753,0.76767 -0.36325,0.0422 -0.78004,-0.097 -0.96779,-0.32319 z m 1.09382,-0.89126 c -0.15992,-0.25875 -0.59842,-0.051 -0.59842,0.28345 0,0.12345 0.16592,0.16078 0.36871,0.083 0.2028,-0.0778 0.30616,-0.2427 0.22971,-0.36641 z m -82.86506,-2.3345 c -0.0824,-0.21467 -0.14978,-1.20108 -0.14978,-2.19202 0,-1.65229 -0.0453,-1.81356 -0.54637,-1.94459 -0.30683,-0.0802 -0.6317,-0.0117 -0.74101,0.15629 -0.12666,0.19467 -0.18073,0.12678 -0.1548,-0.19435 0.0858,-1.06209 -0.0522,-1.60391 -0.40848,-1.60391 -0.20358,0 -0.37014,-0.11104 -0.37014,-0.24675 0,-0.13572 -0.11759,-0.24676 -0.26132,-0.24676 -0.14372,0 -0.19269,0.11104 -0.10881,0.24676 0.0839,0.13571 0.0471,0.24675 -0.0818,0.24675 -0.12888,0 -0.27969,-0.38864 -0.33515,-0.86364 -0.0554,-0.47501 -0.0121,-0.86365 0.0964,-0.86365 0.10847,0 0.19721,0.17311 0.19721,0.3847 0,0.21158 0.10062,0.32251 0.22359,0.24651 0.29467,-0.18212 0.0432,-1.122377 -0.2819,-1.054207 -0.13866,0.0291 -0.27309,-0.17443 -0.29873,-0.45223 -0.0335,-0.36297 0.11089,-0.51814 0.51312,-0.55143 0.30785,-0.0255 0.63897,0.0819 0.73582,0.23859 0.11732,0.18984 0.0391,0.23233 -0.23453,0.12735 -0.22584,-0.0867 -0.41061,-0.05 -0.41061,0.0814 0,0.13145 0.12292,0.23901 0.27315,0.23901 0.15024,0 0.20924,0.16656 0.13112,0.37013 -0.0781,0.203577 -0.0422,0.370137 0.0798,0.370137 0.12202,0 0.25733,-0.24984 0.3007,-0.555197 0.0434,-0.30536 0.16994,-0.49968 0.28127,-0.43183 0.27079,0.16505 0.72852,-0.67851 0.53664,-0.98897 -0.20151,-0.32606 -1.75518,-0.31263 -2.37774,0.0206 -0.42722,0.22864 -0.47016,0.40791 -0.31032,1.29547 0.10203,0.566547 0.21357,1.529777 0.24787,2.140497 0.0343,0.61072 0.18287,1.66454 0.33018,2.34182 0.1473,0.67729 0.21414,1.37129 0.14855,1.54223 -0.0656,0.17094 -0.0117,0.3108 0.11974,0.3108 0.13146,0 0.23902,-0.45072 0.23902,-1.00159 0,-0.59715 0.0985,-0.94071 0.24393,-0.85083 0.13968,0.0863 0.18135,-0.0123 0.0975,-0.23077 -0.0805,-0.20985 -0.24582,-0.3201 -0.36731,-0.24501 -0.12149,0.0751 -0.2209,-0.0366 -0.2209,-0.24817 0,-0.21159 0.11104,-0.3847 0.24676,-0.3847 0.13571,0 0.24845,-0.19432 0.25053,-0.43182 0.003,-0.36904 0.0386,-0.37801 0.24298,-0.0617 0.13156,0.20357 0.2426,0.98085 0.24675,1.72729 0.004,0.74643 0.12027,1.52371 0.25803,1.72729 0.18584,0.27461 0.2098,0.19501 0.0928,-0.30845 -0.10285,-0.44277 -0.0575,-0.67858 0.13045,-0.67858 0.15843,0 0.21998,-0.11016 0.13677,-0.2448 -0.0832,-0.13464 -0.0376,-0.44 0.10131,-0.67858 0.19041,-0.32696 0.25446,-0.0194 0.26011,1.24899 0.007,1.60577 -0.0179,1.67916 -0.54769,1.60391 -0.45613,-0.0648 -0.58007,-0.277 -0.69454,-1.18925 l -0.13934,-1.1104 -0.10742,1.1104 c -0.088,0.91009 -0.19644,1.1104 -0.60093,1.1104 -0.43642,0 -0.50081,-0.18554 -0.55662,-1.60391 -0.084,-2.13329 -0.23735,-2.71431 -0.71664,-2.71431 -0.34875,0 -0.38297,-0.27643 -0.2661,-2.14971 0.11396,-1.826547 0.21603,-2.216037 0.67901,-2.590937 0.88126,-0.7136 2.42467,-0.57699 3.42304,0.30299 0.65057,0.57342 1.06998,0.73632 1.89572,0.73632 0.88498,0 1.08832,-0.0918 1.22953,-0.5552 0.31905,-1.04694 0.86114,-1.41907 2.06142,-1.41507 0.62362,0.002 1.25603,0.0854 1.40535,0.18507 0.58482,0.39049 0.8389,1.33732 0.8389,3.126137 0,1.49495 -0.0737,1.86689 -0.37013,1.86689 -0.29769,0 -0.37014,0.38048 -0.37014,1.94383 0,1.40083 -0.10037,2.02713 -0.35932,2.24204 -0.48342,0.4012 -0.87446,0.11633 -0.87446,-0.63704 0,-0.34843 -0.10738,-0.55052 -0.24675,-0.46439 -0.13572,0.0839 -0.24676,0.35615 -0.24676,0.60505 0,0.47357 -0.62344,0.85343 -1.00929,0.61497 -0.12347,-0.0763 -0.22449,-0.68739 -0.22449,-1.35796 0,-0.71307 -0.1113,-1.21921 -0.26812,-1.21921 -0.17396,0 -0.25165,0.67159 -0.22122,1.91235 0.0258,1.0518 0.0354,2.05116 0.0214,2.2208 -0.0314,0.37938 -0.81624,0.40606 -1.1821,0.0402 -0.19318,-0.19317 -0.31467,-0.19317 -0.43405,0 -0.24892,0.40275 -1.05002,0.32265 -1.22067,-0.12206 z m 5.89574,-2.324 c 0.0839,-0.13571 0.0349,-0.24675 -0.10882,-0.24675 -0.14372,0 -0.26132,0.11104 -0.26132,0.24675 0,0.13572 0.049,0.24676 0.10882,0.24676 0.0599,0 0.17744,-0.11104 0.26132,-0.24676 z m -1.67184,-2.03131 c -0.0549,-0.44351 -0.10098,-0.14014 -0.10237,0.67415 -0.001,0.8143 0.0435,1.17717 0.0999,0.80638 0.0563,-0.37079 0.0574,-1.03703 0.003,-1.48053 z m -0.50378,1.24478 c -0.0788,-0.19685 -0.13724,-0.13838 -0.14908,0.14908 -0.0107,0.26012 0.0476,0.40586 0.1296,0.32387 0.082,-0.082 0.0908,-0.29483 0.0195,-0.47295 z m 1.31197,-0.58519 c 0,-0.3473 -0.10061,-0.56927 -0.22359,-0.49326 -0.12297,0.076 -0.16554,0.36015 -0.0946,0.63145 0.17756,0.67896 0.31819,0.61788 0.31819,-0.13819 z m 0.57972,-0.98036 c -0.19278,-0.50236 -0.30909,-0.45251 -0.2664,0.11419 0.0197,0.26202 0.11903,0.42503 0.22064,0.36223 0.10162,-0.0628 0.12221,-0.27719 0.0458,-0.47642 z m -6.83194,-1.90445 c -0.0685,-0.16965 -0.12446,-0.0308 -0.12446,0.30844 0,0.33929 0.056,0.47809 0.12446,0.30844 0.0684,-0.16964 0.0684,-0.44724 0,-0.61688 z m -0.41018,-0.43183 c 0,-0.13571 -0.11104,-0.24675 -0.24676,-0.24675 -0.13571,0 -0.24675,0.11104 -0.24675,0.24675 0,0.13572 0.11104,0.24676 0.24675,0.24676 0.13572,0 0.24676,-0.11104 0.24676,-0.24676 z m 0.49351,-0.75483 c 0,-0.279437 -0.10619,-0.442437 -0.23598,-0.362227 -0.12979,0.0802 -0.17343,0.308847 -0.097,0.508077 0.19574,0.51007 0.33296,0.44996 0.33296,-0.14585 z m 7.10355,-0.759437 c -0.0616,-0.1848 -0.17346,-0.0729 -0.26071,0.26071 -0.10734,0.41044 -0.0752,0.506787 0.10789,0.32368 0.14339,-0.14339 0.21216,-0.40637 0.15282,-0.58439 z m -0.18842,-0.70533 c 0.18723,0.29618 0.23397,0.26037 0.23701,-0.18156 0.003,-0.40142 -0.18,-0.59077 -0.6748,-0.69919 -0.37322,-0.0818 -0.80659,-0.18731 -0.96304,-0.23451 -0.491,-0.14813 -1.16659,0.51347 -0.99115,0.97064 0.089,0.2318 0.24579,0.37279 0.34853,0.31332 0.10275,-0.0595 0.40889,-0.0223 0.68032,0.0825 0.33845,0.13077 0.5935,0.0633 0.8117,-0.21475 0.27906,-0.35557 0.34687,-0.36005 0.55143,-0.0365 z m -2.08264,-0.33643 c 0.10257,-0.26731 0.44508,-0.40504 1.00723,-0.40504 0.4685,0 0.78963,0.10062 0.71362,0.22359 -0.076,0.12298 -0.36074,0.16539 -0.63276,0.0942 -0.27202,-0.0711 -0.66309,0.0105 -0.86905,0.18145 -0.31259,0.25942 -0.34878,0.24385 -0.21904,-0.0943 z m 63.43659,9.547447 c -0.0905,-0.0905 -0.1645,-1.10024 -0.1645,-2.24391 0,-1.89616 -0.0451,-2.09118 -0.51143,-2.21314 -0.48018,-0.12557 -0.50124,-0.24852 -0.34476,-2.01263 0.23332,-2.630417 0.50861,-2.989287 2.29306,-2.989287 0.78402,0 1.55875,0.13324 1.7216,0.2961 0.23031,0.23031 0.29611,-0.0378 0.29611,-1.20644 0,-1.93318 0.43141,-2.49294 1.97405,-2.56131 1.62094,-0.0718 1.67941,-0.051 2.09108,0.74508 0.50659,0.97963 0.51516,3.85821 0.0123,4.13961 -0.26439,0.14796 -0.37757,0.724077 -0.41317,2.103077 -0.055,2.12855 -0.18702,2.49357 -0.85617,2.3664 -0.3449,-0.0655 -0.49969,-0.37252 -0.60328,-1.19637 l -0.13933,-1.1082 -0.10742,1.11041 c -0.088,0.91009 -0.19645,1.1104 -0.60093,1.1104 -0.44741,0 -0.50504,-0.20563 -0.61689,-2.20121 -0.0679,-1.21066 -0.23661,-2.238507 -0.37501,-2.284117 -0.16144,-0.0532 -0.21811,0.581057 -0.1581,1.769387 0.0796,1.57664 0.0344,1.85229 -0.30357,1.85229 -0.33336,0 -0.3971,0.33179 -0.3971,2.06721 0,1.54784 -0.0942,2.14535 -0.37476,2.37824 -0.30587,0.25384 -0.45903,0.23476 -0.83316,-0.10382 -0.40643,-0.36782 -0.47496,-0.37168 -0.60452,-0.0341 -0.14988,0.3906 -0.69091,0.5095 -0.98413,0.21628 z m -4.30918,-4.98633 c -0.15719,-0.0971 -0.30633,-1.06625 -0.34776,-2.25966 -0.0636,-1.831107 -0.12595,-2.080597 -0.50436,-2.017057 -0.34131,0.0573 -0.42805,-0.0979 -0.41381,-0.74027 0.0322,-1.45115 0.38188,-3.4088 0.65835,-3.68526 0.1484,-0.1484 0.83697,-0.30956 1.53015,-0.35814 1.76243,-0.12349 2.13853,0.30536 2.36233,2.69362 0.17212,1.83681 0.0522,2.52773 -0.39105,2.25376 -0.12634,-0.0781 -0.23821,0.11443 -0.2486,0.4278 -0.12529,3.778187 -0.37947,4.454367 -1.32063,3.513207 -0.21327,-0.21327 -0.38776,-0.28067 -0.38776,-0.14978 0,0.32473 -0.59913,0.53051 -0.93686,0.32178 z m 1.43037,-1.40272 c 0,-0.19556 -0.11104,-0.35557 -0.24676,-0.35557 -0.13571,0 -0.24675,0.22863 -0.24675,0.50807 0,0.27944 0.11104,0.43945 0.24675,0.35557 0.13572,-0.0839 0.24676,-0.31251 0.24676,-0.50807 z m -63.86038,-3.119317 c -0.49739,-0.49739 -0.34025,-1.39089 0.32078,-1.82401 0.57145,-0.37443 0.66232,-0.37443 1.23378,0 1.09261,0.71591 0.68403,2.12011 -0.61689,2.12011 -0.35286,0 -0.77482,-0.13325 -0.93767,-0.2961 z m 1.54079,-0.4219 c 0.23804,-0.38514 -0.152,-1.03727 -0.57248,-0.95719 -0.22043,0.042 -0.43626,0.32503 -0.47963,0.629 -0.0593,0.41529 0.0445,0.55268 0.41726,0.55268 0.27286,0 0.55855,-0.10102 0.63485,-0.22449 z m 65.6789,-0.15273 c -0.56682,-0.56682 0.006,-1.84353 0.82751,-1.84353 0.46199,0 1.2418,0.73717 1.2418,1.1739 0,0.42753 -0.72993,1.0469 -1.23377,1.0469 -0.25205,0 -0.62804,-0.16977 -0.83554,-0.37727 z m -70.80588,-0.77421 c -0.26811,-0.26811 -0.18757,-1.19426 0.13161,-1.51344 0.85813,-0.85814 2.4532,0.37368 1.684,1.3005 -0.31498,0.37952 -1.50899,0.51956 -1.81561,0.21294 z m 1.17106,-0.47824 c 0.50222,-0.19272 0.25751,-0.59104 -0.3631,-0.59104 -0.47898,0 -0.62424,0.26597 -0.31445,0.57577 0.20023,0.20022 0.19582,0.20012 0.67755,0.0153 z m 5.8115,-0.36077 c -0.21234,-0.39677 -0.1856,-0.6434 0.12038,-1.1104 0.43052,-0.65705 0.67873,-0.72302 1.3562,-0.36044 1.08246,0.57931 0.74234,1.9809 -0.4807,1.9809 -0.47818,0 -0.81532,-0.17267 -0.99588,-0.51006 z m 1.56937,-0.32946 c 0.16639,-0.43361 -0.0325,-0.64102 -0.61462,-0.64102 -0.50889,0 -0.61931,0.63179 -0.14394,0.82361 0.50974,0.20568 0.61972,0.17921 0.75856,-0.18259 z m -0.69687,-0.1475 c -0.0839,-0.13572 -0.0349,-0.24676 0.10882,-0.24676 0.14372,0 0.26131,0.11104 0.26131,0.24676 0,0.13571 -0.049,0.24675 -0.10881,0.24675 -0.0598,0 -0.17744,-0.11104 -0.26132,-0.24675 z m 67.03621,-1.41888 c -0.26532,-0.51586 -0.10605,-1.06154 0.42982,-1.47268 0.51762,-0.39714 0.65462,-0.38835 1.11444,0.0715 0.50086,0.50087 0.49936,1.49066 -0.003,1.68326 -0.70289,0.26973 -1.31557,0.15764 -1.5417,-0.28204 z m 1.25095,-0.64199 c 0.15592,0.0964 0.19181,0.0465 0.0877,-0.12184 -0.2661,-0.43056 -0.643,-0.34137 -0.62097,0.14694 0.0118,0.26052 0.0691,0.30885 0.14445,0.12185 0.0687,-0.1705 0.24369,-0.23662 0.38878,-0.14695 z m -9.74436,-0.17884 c -0.49571,-0.28972 -0.57204,-1.22272 -0.13572,-1.65904 0.52256,-0.52256 1.42229,-0.35161 1.67712,0.31864 0.23973,0.63053 0.10454,1.3593 -0.25215,1.3593 -0.1101,0 -0.34806,0.0525 -0.52881,0.11674 -0.18074,0.0642 -0.52294,0.003 -0.76044,-0.13564 z"
       style="fill:url(#linearGradient132849);fill-opacity:1;stroke:url(#linearGradient132847);stroke-opacity:1"
       id="path1"
       inkscape:export-filename="network-1"
       inkscape:export-xdpi="96"
       inkscape:export-ydpi="96" /></g></svg>
